<?xml version="1.0" encoding="UTF-8"?>
<svg width="768" height="768" viewBox="0 0 512 512" fill="none" xmlns="http://www.w3.org/2000/svg">
  <rect width="512" height="512" rx="40" fill="#F7F2EA" />
  <rect x="24" y="24" width="464" height="464" rx="30" fill="#F6E8D1" opacity="0.42" />
  <circle cx="410" cy="104" r="52" fill="#D6B88E" opacity="0.16" />
  <circle cx="108" cy="126" r="36" fill="#D6B88E" opacity="0.12" />
  
      <ellipse cx="256" cy="430" rx="128" ry="18" fill="rgba(214, 184, 142, 0.18)" />
      <path d="M164 154 L212 110 L236 150 L236 194 L276 194 L276 150 L300 110 L348 154 L326 220 L300 208 L300 392 L212 392 L212 208 L186 220 Z" fill="#D6B88E" />
      
      
      
      <path d="M222 196 L290 196" stroke="#F6E8D1" stroke-width="8" opacity="0.48" />
      
    
  <rect x="48" y="48" width="144" height="34" rx="17" fill="#FFFFFF" opacity="0.92" />
  <text x="120" y="70" text-anchor="middle" font-size="18" font-family="Arial, sans-serif" fill="#5B4636">COLOR VIEW</text>
  <text x="256" y="458" text-anchor="middle" font-size="26" font-family="Arial, sans-serif" letter-spacing="2" fill="#4B3728">RELAXED LINEN SHIR</text>
  <text x="256" y="486" text-anchor="middle" font-size="22" font-family="Arial, sans-serif" fill="#D6B88E">بيج</text>
</svg>